<?xml version="1.0" encoding="UTF-8" standalone="no"?>
<!-- Created with Inkscape (http://www.inkscape.org/) -->

<svg
   xmlns:dc="http://purl.org/dc/elements/1.1/"
   xmlns:cc="http://creativecommons.org/ns#"
   xmlns:rdf="http://www.w3.org/1999/02/22-rdf-syntax-ns#"
   xmlns:svg="http://www.w3.org/2000/svg"
   xmlns="http://www.w3.org/2000/svg"
   xmlns:sodipodi="http://sodipodi.sourceforge.net/DTD/sodipodi-0.dtd"
   xmlns:inkscape="http://www.inkscape.org/namespaces/inkscape"
   width="161.97993"
   height="86.55603"
   viewBox="0 0 42.857192 22.901283"
   version="1.1"
   id="svg25120"
   inkscape:version="0.92.0 r15299"
   sodipodi:docname="yrc wordwide.svg">
  <defs
     id="defs25114">
    <clipPath
       id="clipPath24532"
       clipPathUnits="userSpaceOnUse">
      <path
         inkscape:connector-curvature="0"
         id="path24530"
         d="m 57,662.008 h 120.735 v 63.993 H 57 Z" />
    </clipPath>
    <clipPath
       id="clipPath24514"
       clipPathUnits="userSpaceOnUse">
      <path
         inkscape:connector-curvature="0"
         id="path24512"
         d="m 57,662.008 h 120.735 v 63.993 H 57 Z" />
    </clipPath>
    <clipPath
       id="clipPath24496"
       clipPathUnits="userSpaceOnUse">
      <path
         inkscape:connector-curvature="0"
         id="path24494"
         d="m 57,662.008 h 120.735 v 63.993 H 57 Z" />
    </clipPath>
    <clipPath
       id="clipPath24480"
       clipPathUnits="userSpaceOnUse">
      <path
         inkscape:connector-curvature="0"
         id="path24478"
         d="m 57,662.008 h 120.735 v 63.993 H 57 Z" />
    </clipPath>
  </defs>
  <sodipodi:namedview
     id="base"
     pagecolor="#ffffff"
     bordercolor="#666666"
     borderopacity="1.0"
     inkscape:pageopacity="0.0"
     inkscape:pageshadow="2"
     inkscape:zoom="5.5721224"
     inkscape:cx="80.489976"
     inkscape:cy="42.894691"
     inkscape:document-units="mm"
     inkscape:current-layer="layer1"
     showgrid="false"
     fit-margin-top="0"
     fit-margin-left="0"
     fit-margin-right="0"
     fit-margin-bottom="0"
     units="px"
     inkscape:window-width="1280"
     inkscape:window-height="744"
     inkscape:window-x="-4"
     inkscape:window-y="-4"
     inkscape:window-maximized="1" />
  <metadata
     id="metadata25117">
    <rdf:RDF>
      <cc:Work
         rdf:about="">
        <dc:format>image/svg+xml</dc:format>
        <dc:type
           rdf:resource="http://purl.org/dc/dcmitype/StillImage" />
        <dc:title></dc:title>
      </cc:Work>
    </rdf:RDF>
  </metadata>
  <g
     inkscape:label="Layer 1"
     inkscape:groupmode="layer"
     id="layer1"
     transform="translate(-104.19179,-190.19794)">
    <g
       id="g25284"
       transform="translate(0.13229053,-0.13228835)">
      <path
         d="m 104.19179,190.46252 8.22007,8.21725 -8.22007,8.21972 h 11.63214 l 16.43803,-16.43697"
         style="fill:#f68712;fill-opacity:1;fill-rule:nonzero;stroke:none;stroke-width:0.35277778"
         id="path24444"
         inkscape:connector-curvature="0" />
      <path
         d="m 132.26196,190.46252 -16.43803,16.43697 h 11.72562 l 8.52805,-8.54039 h 7.64505 v -7.89658"
         style="fill:#173e7d;fill-opacity:1;fill-rule:nonzero;stroke:none;stroke-width:0.35277778"
         id="path24448"
         inkscape:connector-curvature="0" />
      <path
         d="m 104.19179,206.89949 8.22007,-8.21937 -8.22007,-8.2176"
         style="fill:#8f8b8d;fill-opacity:1;fill-rule:nonzero;stroke:none;stroke-width:0.35277778"
         id="path24452"
         inkscape:connector-curvature="0" />
      <path
         d="m 127.54955,206.89949 h 16.1731 v -8.54004 h -7.6447"
         style="fill:#8f8b8d;fill-opacity:1;fill-rule:nonzero;stroke:none;stroke-width:0.35277778"
         id="path24456"
         inkscape:connector-curvature="0" />
      <path
         d="m 146.41328,206.68042 c -0.13335,0.13476 -0.29704,0.20249 -0.48683,0.20249 -0.1905,0 -0.35384,-0.0677 -0.48648,-0.20249 -0.133,-0.13406 -0.19968,-0.29845 -0.19968,-0.48966 0,-0.18908 0.0677,-0.35207 0.20038,-0.48577 0.13335,-0.13406 0.29669,-0.20214 0.48578,-0.20214 0.18909,0 0.35277,0.0681 0.48683,0.20214 0.13264,0.1337 0.20073,0.29669 0.20073,0.48577 0,0.19121 -0.0681,0.3556 -0.20073,0.48966 m 0.12065,-1.09255 c -0.16616,-0.16546 -0.37006,-0.24871 -0.60537,-0.24871 -0.23424,0 -0.43638,0.0833 -0.60184,0.24871 -0.16615,0.16616 -0.25047,0.36794 -0.25047,0.60254 0,0.23601 0.0833,0.43921 0.24836,0.60502 0.16475,0.16686 0.3683,0.25153 0.60395,0.25153 0.23531,0 0.43921,-0.0847 0.60572,-0.25153 0.16581,-0.16616 0.25012,-0.37042 0.25012,-0.60502 0,-0.2346 -0.0843,-0.4378 -0.25047,-0.60254"
         style="fill:#8f8b8d;fill-opacity:1;fill-rule:nonzero;stroke:none;stroke-width:0.35277778"
         id="path24460"
         inkscape:connector-curvature="0" />
      <path
         d="m 145.9007,206.14524 h -0.11959 v -0.27481 h 0.11148 c 0.0847,0 0.14569,0.0102 0.18238,0.03 0.0317,0.018 0.0473,0.0533 0.0473,0.10972 0,0.0593 -0.025,0.0963 -0.078,0.11712 -0.0303,0.0123 -0.079,0.018 -0.14358,0.018 m 0.4251,0.48295 -0.006,-0.0113 c -7.1e-4,-7e-4 -0.003,-0.007 -0.005,-0.0363 -0.002,-0.0254 -0.002,-0.0466 -0.002,-0.0663 v -0.0663 c 0,-0.0508 -0.018,-0.10301 -0.0536,-0.15487 -0.0205,-0.031 -0.0505,-0.0533 -0.0843,-0.0705 0.0201,-0.007 0.0391,-0.0159 0.054,-0.0257 0.0663,-0.0434 0.10019,-0.11078 0.10019,-0.20144 0,-0.12559 -0.0533,-0.21096 -0.15734,-0.25435 -0.0564,-0.0233 -0.14111,-0.0346 -0.25859,-0.0346 h -0.34431 v 0.96062 h 0.21273 v -0.35737 h 0.0998 c 0.0998,0 0.145,0.0138 0.1651,0.0254 0.0483,0.0286 0.0727,0.0907 0.0727,0.18486 v 0.0755 l 0.004,0.0289 c 0.001,0.006 0.002,0.008 0.002,0.0116 7.1e-4,0.002 0.002,0.006 0.002,0.006 l 0.001,0.005 0.005,0.0198 c 0,7.1e-4 0.0208,7.1e-4 0.0208,7.1e-4 h 0.19226"
         style="fill:#8f8b8d;fill-opacity:1;fill-rule:nonzero;stroke:none;stroke-width:0.35277778"
         id="path24464"
         inkscape:connector-curvature="0" />
      <path
         d="m 104.34913,209.15763 h 1.10067 l 0.82409,1.31198 c 0.0487,-0.10866 0.0596,-0.13017 0.15733,-0.28716 l 0.65582,-1.02482 h 1.08973 l -1.44745,2.01683 v 1.81081 h -0.94333 v -1.78365"
         style="fill:#8f8b8d;fill-opacity:1;fill-rule:nonzero;stroke:none;stroke-width:0.35277778"
         id="path24468"
         inkscape:connector-curvature="0" />
      <path
         d="m 109.39103,209.87307 v 1.03576 h 0.79163 c 0.13547,-0.006 0.57468,-0.0162 0.57468,-0.526 0,-0.48789 -0.35243,-0.50412 -0.55316,-0.50976 z m -0.95956,-0.71543 h 1.72403 c 0.40111,0.005 0.89994,0.0106 1.25236,0.39017 0.17886,0.20073 0.30374,0.50412 0.30374,0.85125 0,0.77012 -0.52599,0.95991 -0.78634,1.05692 l 0.88371,1.52894 h -1.05728 l -0.75882,-1.36595 h -0.60184 v 1.36595 h -0.95956"
         style="fill:#8f8b8d;fill-opacity:1;fill-rule:nonzero;stroke:none;stroke-width:0.35277778"
         id="path24472"
         inkscape:connector-curvature="0" />
      <path
         d="m 115.60415,212.1125 c -0.14111,0.22225 -0.27658,0.43886 -0.58032,0.65052 -0.16228,0.11395 -0.53657,0.3362 -1.06786,0.3362 -1.01388,0 -1.83268,-0.73766 -1.83268,-2.03306 0,-1.13312 0.77012,-2.02777 1.8542,-2.02777 0.43921,0 0.82974,0.1517 1.1169,0.37959 0.26599,0.21132 0.39052,0.42263 0.49882,0.61243 l -0.75882,0.37958 c -0.0543,-0.12453 -0.11959,-0.25505 -0.28751,-0.39581 -0.18415,-0.14605 -0.36866,-0.1898 -0.526,-0.1898 -0.61806,0 -0.94332,0.57503 -0.94332,1.21462 0,0.84031 0.42827,1.258 0.94332,1.258 0.49883,0 0.69956,-0.34713 0.82974,-0.56938"
         style="fill:#8f8b8d;fill-opacity:1;fill-rule:nonzero;stroke:none;stroke-width:0.35277778"
         id="path24484"
         inkscape:connector-curvature="0" />
      <path
         d="m 119.95778,209.15763 c 0.11395,0.41204 0.22789,0.82409 0.35242,1.23613 0.21132,0.73731 0.24942,0.85655 0.36866,1.5995 0.11394,-0.75918 0.14111,-0.88936 0.31468,-1.67005 0.0811,-0.39017 0.16792,-0.7807 0.24906,-1.16558 h 0.94897 l -0.97049,3.82764 h -0.98672 c -0.11924,-0.42298 -0.23319,-0.84561 -0.35807,-1.2633 -0.20567,-0.70485 -0.21661,-0.73166 -0.33055,-1.26859 -0.0977,0.47167 -0.10831,0.50977 -0.32527,1.24178 l -0.36865,1.29011 h -0.98672 l -0.97049,-3.82764 h 0.95426 c 0.41205,1.8161 0.45509,2.01683 0.56904,2.84656 0.14111,-0.75917 0.17921,-0.90558 0.37958,-1.66475 l 0.31433,-1.18181"
         style="fill:#8f8b8d;fill-opacity:1;fill-rule:nonzero;stroke:none;stroke-width:0.35277778"
         id="path24488"
         inkscape:connector-curvature="0" />
      <path
         d="m 123.02765,211.00619 c -0.10301,0.16298 -0.14111,0.35807 -0.14111,0.55316 0,0.45014 0.21696,0.84596 0.68333,0.84596 0.44979,0 0.67204,-0.36336 0.67204,-0.80822 0,-0.31432 -0.0759,-0.55844 -0.23283,-0.71014 -0.17357,-0.16263 -0.36866,-0.16792 -0.48825,-0.15698 -0.23847,0.0162 -0.37923,0.0974 -0.49318,0.27622 m 2.06022,0.55845 c 0,0.71578 -0.41204,1.50212 -1.518,1.50212 -0.79693,0 -1.52365,-0.45543 -1.52365,-1.50212 0,-0.86748 0.54751,-1.55575 1.63195,-1.49613 1.15464,0.0649 1.4097,0.98142 1.4097,1.49613"
         style="fill:#8f8b8d;fill-opacity:1;fill-rule:nonzero;stroke:none;stroke-width:0.35277778"
         id="path24500"
         inkscape:connector-curvature="0" />
      <path
         d="m 126.324,210.44774 c 0.1845,-0.15734 0.38488,-0.28187 0.81844,-0.32526 v 0.7373 l -0.27657,0.0434 c -0.40111,0.0705 -0.52035,0.13017 -0.52035,0.48789 v 1.59385 h -0.83503 v -2.83528 h 0.81351"
         style="fill:#8f8b8d;fill-opacity:1;fill-rule:nonzero;stroke:none;stroke-width:0.35277778"
         id="path24504"
         inkscape:connector-curvature="0" />
      <path
         inkscape:connector-curvature="0"
         id="path24506"
         style="fill:#8f8b8d;fill-opacity:1;fill-rule:nonzero;stroke:none;stroke-width:0.35277778"
         d="m 127.44655,212.98491 h 0.83467 v -3.82764 h -0.83467 z" />
      <path
         d="m 130.6667,211.57028 c 0,-0.13017 0,-0.4826 -0.17886,-0.69956 -0.0381,-0.0487 -0.15734,-0.16792 -0.32526,-0.16792 -0.5909,0 -0.5909,0.74295 -0.5909,0.86748 0,0.39582 0.10795,0.87806 0.53128,0.87806 0.0921,0 0.1898,-0.0325 0.27093,-0.0868 0.29281,-0.20038 0.29281,-0.63394 0.29281,-0.79128 m 0.79163,-2.41265 v 3.82764 h -0.75917 v -0.26564 c -0.13018,0.13017 -0.34678,0.34149 -0.76447,0.34149 -0.28187,0 -0.57468,-0.10866 -0.79693,-0.32526 -0.4124,-0.39582 -0.4124,-0.9652 -0.4124,-1.14935 0,-1.06821 0.60749,-1.50707 1.17687,-1.50707 0.37395,0 0.5962,0.17322 0.74824,0.28716 v -1.20897"
         style="fill:#8f8b8d;fill-opacity:1;fill-rule:nonzero;stroke:none;stroke-width:0.35277778"
         id="path24518"
         inkscape:connector-curvature="0" />
      <path
         d="m 132.59711,210.15493 0.39546,1.97873 0.42828,-1.97873 h 0.88935 l 0.38488,1.99531 0.4445,-1.99531 h 0.86219 l -0.84596,2.82998 h -0.90523 l -0.41769,-1.8863 -0.42263,1.8863 h -0.91616 l -0.77541,-2.82998"
         style="fill:#8f8b8d;fill-opacity:1;fill-rule:nonzero;stroke:none;stroke-width:0.35277778"
         id="path24522"
         inkscape:connector-curvature="0" />
      <path
         inkscape:connector-curvature="0"
         id="path24524"
         style="fill:#8f8b8d;fill-opacity:1;fill-rule:nonzero;stroke:none;stroke-width:0.35277778"
         d="m 136.28363,210.14964 h 0.82409 v 2.83527 h -0.82409 z m 0,-0.99731 h 0.82409 v 0.64523 h -0.82409 z" />
      <path
         d="m 139.4932,211.57028 c 0,-0.13017 0,-0.4826 -0.17886,-0.69956 -0.0381,-0.0487 -0.15734,-0.16792 -0.32526,-0.16792 -0.5909,0 -0.5909,0.74295 -0.5909,0.86748 0,0.39582 0.10865,0.87806 0.53128,0.87806 0.0917,0 0.1898,-0.0325 0.27093,-0.0868 0.29281,-0.20038 0.29281,-0.63394 0.29281,-0.79128 m 0.79163,-2.41265 v 3.82764 h -0.75917 v -0.26564 c -0.13018,0.13017 -0.34714,0.34149 -0.76447,0.34149 -0.28187,0 -0.57468,-0.10866 -0.79693,-0.32526 -0.41204,-0.39582 -0.41204,-0.9652 -0.41204,-1.14935 0,-1.06821 0.60748,-1.50707 1.17651,-1.50707 0.37395,0 0.59655,0.17322 0.74824,0.28716 v -1.20897"
         style="fill:#8f8b8d;fill-opacity:1;fill-rule:nonzero;stroke:none;stroke-width:0.35277778"
         id="path24536"
         inkscape:connector-curvature="0" />
      <path
         d="m 142.72994,211.21786 c -0.0166,-0.11924 -0.0381,-0.27658 -0.15734,-0.40111 -0.10301,-0.10301 -0.26,-0.15734 -0.40675,-0.15734 -0.20038,0 -0.34149,0.0977 -0.42263,0.18451 -0.11395,0.12453 -0.14111,0.2547 -0.16827,0.37394 z m 0.82938,1.04634 c -0.0977,0.1464 -0.19509,0.28716 -0.34149,0.42298 -0.24412,0.22754 -0.61277,0.40111 -1.06821,0.40111 -0.84032,0 -1.43122,-0.53693 -1.43122,-1.46368 0,-0.68333 0.3362,-1.56174 1.45274,-1.56174 0.16828,0 0.65617,0.0166 1.01953,0.40675 0.36865,0.39582 0.39052,0.94897 0.40111,1.26894 h -2.02213 c -0.005,0.35207 0.19509,0.7045 0.64523,0.7045 0.45509,0 0.61243,-0.2981 0.71544,-0.49883"
         style="fill:#8f8b8d;fill-opacity:1;fill-rule:nonzero;stroke:none;stroke-width:0.35277778"
         id="path24540"
         inkscape:connector-curvature="0" />
    </g>
  </g>
</svg>
